<?xml version="1.0" standalone="no"?>
<!DOCTYPE svg PUBLIC "-//W3C//DTD SVG 20010904//EN"
 "http://www.w3.org/TR/2001/REC-SVG-20010904/DTD/svg10.dtd">
<svg version="1.0" xmlns="http://www.w3.org/2000/svg"
 width="610.000000pt" height="607.000000pt" viewBox="0 0 610.000000 607.000000"
 preserveAspectRatio="xMidYMid meet">

<g transform="translate(0.000000,607.000000) scale(0.100000,-0.100000)"
fill="#000000" stroke="none">
<path d="M4734 3621 c-97 -44 -234 -212 -387 -473 -140 -238 -213 -437 -189
-514 18 -60 47 -100 93 -131 37 -24 52 -28 117 -28 66 0 76 3 93 24 20 25 21
28 37 131 18 122 136 384 254 565 65 100 93 133 104 122 3 -3 -28 -66 -69
-140 -92 -166 -180 -370 -196 -459 -24 -127 27 -218 141 -253 50 -14 95 -13
140 6 29 12 48 56 48 114 0 75 86 310 190 521 l80 162 125 -5 c150 -7 195 6
250 70 70 82 80 193 23 251 -26 25 -34 28 -71 22 -154 -23 -179 -24 -272 -15
-55 5 -147 18 -205 29 -135 26 -251 26 -306 1z m326 -95 c184 -32 283 -39 361
-27 120 20 114 21 113 -22 -2 -42 -24 -79 -67 -111 -23 -17 -41 -20 -119 -18
-51 1 -117 6 -146 11 -53 8 -54 8 -74 -23 -23 -37 -189 -378 -205 -421 -39
-108 -85 -264 -91 -313 l-7 -57 -43 1 c-54 1 -100 42 -108 96 -11 62 79 305
161 438 12 19 43 76 70 125 26 50 63 108 82 129 18 22 33 43 33 47 0 10 -53
19 -145 25 l-80 6 -46 -64 c-163 -224 -325 -571 -346 -740 -6 -54 -17 -61 -68
-47 -90 25 -111 110 -60 244 28 75 107 233 152 303 18 29 33 55 33 58 0 11
136 201 189 265 112 133 148 141 411 95z"/>
<path d="M1190 3602 c-123 -22 -184 -56 -212 -119 -39 -88 -33 -219 13 -277
39 -50 132 -58 177 -15 25 23 92 53 92 42 0 -5 -10 -15 -22 -22 -47 -29 -270
-214 -381 -315 -119 -109 -150 -153 -163 -232 -12 -77 34 -181 94 -213 31 -17
63 -13 135 13 166 63 372 73 481 23 66 -30 123 -34 166 -12 32 16 105 102 115
135 5 16 15 20 51 20 55 0 96 20 112 54 l11 26 37 -25 c75 -51 146 -57 222
-19 l53 26 52 -22 c41 -18 64 -21 113 -17 l62 5 4 -68 c4 -76 33 -127 91 -157
38 -20 132 -26 184 -11 84 23 179 120 235 238 24 52 37 60 58 34 36 -42 142
-57 220 -29 41 15 45 14 94 -10 90 -45 163 -29 193 43 l15 36 24 -31 c46 -60
155 -80 241 -45 58 24 117 76 168 147 66 93 88 142 81 181 -7 34 -55 84 -82
84 -10 0 -14 12 -14 38 0 21 -10 58 -22 82 -42 82 -169 124 -253 84 -30 -14
-36 -14 -57 0 -13 8 -40 18 -60 21 -29 6 -38 12 -38 27 0 37 -33 90 -71 114
-93 58 -225 7 -245 -95 -4 -20 -19 -39 -45 -56 -39 -25 -40 -25 -88 -9 -57 18
-93 11 -157 -32 l-37 -25 -22 21 c-12 11 -44 29 -71 39 -43 17 -50 23 -55 53
-22 137 -216 176 -295 59 -13 -19 -24 -46 -24 -58 0 -14 -11 -29 -27 -40 -16
-9 -45 -32 -65 -52 l-37 -35 -23 25 c-13 14 -38 31 -56 38 -28 12 -32 18 -26
35 33 96 -49 196 -151 184 -29 -3 -35 0 -49 29 -23 48 -54 63 -173 84 -142 24
-435 25 -573 1z m435 -72 c215 -21 245 -36 245 -123 0 -54 0 -54 -42 -73 -121
-54 -622 -429 -753 -563 -52 -54 -53 -57 -9 -40 49 18 276 49 366 49 115 0
165 -19 174 -65 11 -58 -27 -134 -78 -161 -29 -15 -34 -14 -87 10 -138 62
-351 55 -544 -18 l-66 -25 -21 26 c-27 35 -34 64 -26 117 6 38 17 53 84 117
98 95 206 188 307 268 88 69 110 86 205 161 36 29 95 72 133 97 37 25 67 48
67 51 0 8 -189 -7 -279 -23 -79 -14 -109 -25 -188 -71 -31 -18 -33 -18 -49 -2
-25 24 -31 123 -11 170 9 21 28 43 44 51 89 45 327 66 528 47z m422 -160 c10
-21 9 -28 -6 -45 -43 -47 -150 -225 -137 -225 3 0 28 21 57 46 81 72 129 79
183 29 36 -33 33 -63 -14 -154 -43 -84 -52 -141 -22 -141 45 1 96 56 130 139
31 75 105 176 141 190 34 15 75 0 97 -34 12 -18 7 -29 -41 -104 -84 -128 -96
-191 -36 -191 49 0 102 54 155 156 54 106 105 164 143 164 30 0 73 -35 73 -59
0 -9 -20 -45 -45 -81 -25 -36 -52 -87 -61 -114 -15 -43 -15 -50 -1 -63 10 -10
24 -13 41 -9 31 8 106 72 106 91 0 29 83 176 116 204 37 33 49 36 87 22 35
-14 44 -47 19 -74 -33 -38 -79 -128 -122 -242 -73 -192 -155 -321 -229 -359
-54 -28 -134 -24 -166 9 -32 31 -35 101 -6 136 17 21 22 22 45 11 56 -25 98
-10 145 53 41 54 39 60 -12 30 -79 -46 -141 -29 -175 48 l-17 37 -38 -35 c-65
-60 -132 -84 -181 -65 -28 10 -65 47 -66 65 -2 36 -19 32 -68 -14 -29 -27 -66
-53 -83 -56 -73 -16 -132 20 -144 89 -7 35 20 118 74 223 36 72 36 73 15 73
-53 0 -210 -245 -229 -357 -6 -37 -10 -43 -31 -43 -39 0 -80 26 -94 60 -10 25
-10 42 -1 85 27 122 194 409 287 495 52 48 90 51 111 10z m538 -25 c14 -13 25
-33 25 -45 0 -32 -44 -70 -80 -70 -44 0 -84 42 -76 78 15 61 87 82 131 37z
m783 8 c54 -46 24 -123 -47 -123 -46 0 -74 27 -74 72 0 58 75 90 121 51z
m-120 -155 c34 -29 31 -43 -24 -127 -56 -87 -81 -148 -71 -175 11 -28 63 -19
104 17 54 46 66 62 113 154 48 92 92 143 124 143 11 0 35 -11 51 -24 27 -22
29 -27 17 -45 -17 -29 -8 -26 45 14 54 41 80 50 131 42 41 -7 82 -46 82 -78 0
-11 -20 -59 -45 -106 -53 -100 -58 -133 -19 -133 17 0 43 17 78 50 51 48 86
63 86 37 0 -23 -79 -133 -128 -180 -57 -52 -106 -70 -157 -56 -95 26 -99 104
-15 277 28 58 48 107 46 110 -14 13 -73 -27 -127 -86 -66 -73 -117 -168 -134
-252 -11 -51 -14 -55 -41 -58 -39 -4 -75 28 -83 74 l-6 35 -35 -32 c-19 -17
-55 -40 -79 -51 -58 -26 -100 -18 -140 28 -26 29 -31 43 -31 88 0 83 42 187
114 283 52 69 101 86 144 51z m-1607 -115 c-37 -75 -60 -130 -71 -174 l-11
-44 -115 0 c-62 0 -113 3 -111 7 4 13 312 248 325 248 1 0 -6 -17 -17 -37z"/>
</g>
</svg>
